<mxfile host="65bd71144e">
    <diagram id="KfdPHv7zOx41Y1P_ZcmR" name="第 1 页">
        <mxGraphModel dx="180" dy="766" grid="1" gridSize="10" guides="1" tooltips="1" connect="1" arrows="1" fold="1" page="1" pageScale="1" pageWidth="827" pageHeight="1169" math="0" shadow="0">
            <root>
                <mxCell id="0"/>
                <mxCell id="1" parent="0"/>
                <mxCell id="2" value="#&lt;span style=&quot;color: rgb(111, 66, 193); background-color: rgb(255, 255, 255);&quot;&gt;Storage&lt;/span&gt;" style="text;html=1;align=center;verticalAlign=middle;resizable=0;points=[];autosize=1;strokeColor=none;fillColor=none;labelBorderColor=none;fontFamily=Comic Sans MS;rounded=1;" parent="1" vertex="1">
                    <mxGeometry x="120" y="170" width="80" height="30" as="geometry"/>
                </mxCell>
                <mxCell id="5" value="" style="whiteSpace=wrap;html=1;rounded=1;labelBorderColor=none;fontFamily=Comic Sans MS;" parent="1" vertex="1">
                    <mxGeometry x="350" y="200" width="120" height="60" as="geometry"/>
                </mxCell>
                <mxCell id="6" value="#&lt;span style=&quot;color: rgb(111, 66, 193); background-color: rgb(255, 255, 255); font-family: Monaco, &amp;quot;Courier New&amp;quot;, monospace, Menlo, Monaco, &amp;quot;Courier New&amp;quot;, monospace;&quot;&gt;useControls&lt;/span&gt;" style="text;html=1;align=center;verticalAlign=middle;resizable=0;points=[];autosize=1;strokeColor=none;fillColor=none;" vertex="1" parent="1">
                    <mxGeometry x="155" y="305" width="110" height="30" as="geometry"/>
                </mxCell>
            </root>
        </mxGraphModel>
    </diagram>
</mxfile>